<?xml version="1.0" standalone="no"?>
<!DOCTYPE svg PUBLIC "-//W3C//DTD SVG 20010904//EN"
 "http://www.w3.org/TR/2001/REC-SVG-20010904/DTD/svg10.dtd">
<svg version="1.0" xmlns="http://www.w3.org/2000/svg"
 width="524.000000pt" height="524.000000pt" viewBox="0 0 524.000000 524.000000"
 preserveAspectRatio="xMidYMid meet">
<metadata>
Created by potrace 1.11, written by Peter Selinger 2001-2013
</metadata>
<g transform="translate(0.000000,524.000000) scale(0.100000,-0.100000)"
fill="#000000" stroke="none">
<path d="M2458 5195 c-1 -1 -41 -6 -88 -10 -46 -3 -87 -8 -90 -10 -3 -1 -30
-6 -60 -9 -151 -18 -428 -98 -600 -174 -59 -26 -191 -89 -210 -101 -8 -5 -62
-38 -120 -72 -58 -35 -109 -67 -115 -71 -5 -4 -50 -39 -100 -76 -99 -76 -132
-104 -205 -173 -47 -45 -50 -46 -94 -39 -70 11 -133 -15 -177 -74 -41 -53 -38
-43 -42 -157 l-4 -85 -72 -110 c-143 -217 -289 -546 -336 -754 -1 -8 -8 -33
-13 -55 -6 -22 -14 -53 -16 -70 -14 -73 -34 -201 -35 -215 0 -8 -4 -44 -8 -80
-13 -124 -6 -492 11 -571 3 -13 7 -37 10 -54 8 -61 18 -112 33 -175 8 -36 16
-69 17 -75 35 -161 136 -412 247 -610 22 -38 44 -80 51 -93 6 -12 15 -22 20
-22 4 0 8 -4 8 -9 0 -9 50 -88 77 -121 6 -8 32 -42 56 -75 88 -118 208 -242
393 -406 105 -93 311 -227 480 -313 154 -77 390 -168 496 -190 13 -3 50 -12
84 -20 67 -17 95 -22 163 -32 25 -4 55 -8 66 -10 62 -13 171 -18 340 -18 235
-1 312 6 510 46 119 23 139 28 175 40 34 12 155 48 160 47 3 0 23 7 45 17 80
33 90 37 101 39 39 9 386 194 404 216 3 3 16 12 30 19 32 17 167 119 245 184
119 101 288 279 375 396 14 18 31 39 38 46 6 7 12 15 12 18 0 3 20 33 44 68
118 170 265 470 312 638 7 25 22 77 33 116 11 39 23 86 26 105 3 19 10 50 15
69 5 19 11 53 15 75 3 23 7 50 9 61 26 135 27 572 2 714 -2 14 -8 48 -12 75
-4 28 -9 57 -11 65 -2 8 -5 24 -8 35 -25 131 -54 226 -117 395 -62 166 -151
339 -261 506 -30 46 -47 84 -51 114 -12 90 -43 159 -99 218 -46 49 -95 69
-173 72 -6 0 -31 19 -56 43 -238 226 -558 424 -873 540 -175 64 -431 125 -600
143 -50 5 -452 14 -457 9z m402 -568 c19 -3 58 -8 85 -12 28 -3 58 -8 67 -11
10 -3 30 -8 45 -10 37 -7 171 -42 203 -54 209 -74 394 -170 550 -284 l61 -44
-78 -55 -78 -55 -18 23 c-17 23 -141 125 -151 125 -3 0 -22 11 -42 25 -34 23
-148 81 -234 118 -45 20 -95 34 -145 41 -22 3 -77 21 -123 41 -96 40 -111 42
-143 17 l-22 -19 31 -14 c18 -8 32 -18 32 -22 0 -5 -3 -6 -8 -3 -42 26 -462
36 -501 12 -11 -7 -13 -4 -9 12 4 12 3 22 0 23 -39 5 -64 3 -69 -4 -2 -4 -12
-2 -21 5 -10 8 -13 9 -9 1 7 -11 -1 -14 -68 -27 -11 -3 -42 -10 -70 -16 -27
-7 -63 -14 -80 -16 -16 -2 -55 -13 -85 -25 -30 -12 -65 -22 -77 -23 -11 0 -19
-4 -17 -7 2 -4 -17 -17 -41 -30 -25 -13 -45 -27 -45 -31 0 -5 -4 -8 -10 -8
-17 0 -143 -85 -190 -129 -28 -26 -52 -40 -63 -37 -9 2 -15 1 -12 -4 3 -4 -1
-10 -8 -13 -12 -5 -34 10 -105 69 l-25 21 49 36 c27 20 54 40 59 44 82 63 405
229 465 239 3 0 43 12 90 26 117 36 184 51 275 63 17 2 30 5 30 5 0 1 19 3 43
5 23 1 44 4 47 7 6 6 365 1 415 -5z m-670 -205 c0 -4 -21 -14 -47 -21 -27 -8
-55 -16 -63 -19 -41 -14 5 11 51 28 64 23 59 22 59 12z m1025 -62 c13 -6 15
-9 5 -9 -8 0 -22 4 -30 9 -18 12 -2 12 25 0z m50 -28 c-3 -3 -11 0 -18 7 -9
10 -8 11 6 5 10 -3 15 -9 12 -12z m1229 -999 c-3 -21 -11 -47 -17 -58 -6 -11
-9 -21 -8 -23 7 -7 -12 -62 -21 -62 -6 0 -8 6 -5 13 11 29 44 142 46 157 0 6
3 10 6 10 3 0 2 -17 -1 -37z m61 -123 c9 -30 19 -63 21 -73 2 -10 5 -26 8 -35
22 -74 61 -373 57 -447 -10 -239 -16 -301 -36 -395 -3 -14 -7 -34 -9 -45 -13
-62 -46 -186 -61 -225 -9 -25 -18 -49 -19 -55 -2 -5 -8 -23 -14 -38 -7 -16
-12 -30 -12 -33 0 -6 -93 -192 -120 -239 -20 -36 -84 -135 -102 -160 -119
-159 -242 -288 -393 -412 -65 -53 -246 -173 -262 -173 -6 0 -13 -3 -15 -7 -4
-10 -113 -64 -206 -102 -70 -29 -72 -29 -61 -8 7 12 15 24 18 27 4 3 29 37 55
75 27 39 78 99 113 134 35 35 93 100 129 145 36 44 73 90 82 101 9 11 16 23
14 28 -1 4 2 7 7 7 5 0 19 16 31 36 19 30 26 34 49 29 21 -4 33 0 51 21 14 14
41 34 61 44 62 32 213 207 276 320 23 41 79 181 134 333 36 99 47 150 64 277
3 25 8 56 11 70 20 101 28 291 15 361 -20 117 -22 124 -33 130 -18 11 -18 111
-1 179 14 55 17 60 25 40 7 -20 11 -22 22 -9 7 8 28 49 47 92 18 44 34 75 35
70 1 -4 10 -33 19 -63z m-3770 -98 c-3 -8 0 -10 7 -6 8 5 9 2 5 -10 -4 -9 -3
-15 1 -12 15 9 75 -141 68 -169 -4 -14 -11 -23 -16 -20 -10 6 -24 -13 -26 -37
-1 -10 -2 -19 -4 -20 -11 -14 -15 -287 -5 -393 17 -198 24 -233 62 -345 74
-216 190 -470 215 -470 4 0 8 -6 8 -13 0 -8 30 -42 66 -78 89 -87 81 -80 154
-121 67 -38 174 -131 163 -142 -3 -3 -1 -6 5 -6 6 0 13 -8 16 -18 3 -10 28
-41 56 -70 27 -29 50 -54 50 -56 0 -6 51 -66 79 -93 14 -13 31 -21 38 -19 7 3
13 -1 13 -10 0 -8 11 -26 25 -40 14 -14 53 -66 86 -116 72 -106 73 -106 -108
-17 -103 50 -326 186 -343 209 -3 4 -34 31 -69 60 -149 124 -337 343 -420 490
-140 250 -235 503 -257 690 -3 30 -8 58 -11 63 -23 38 -21 560 2 597 3 5 7 28
10 51 3 24 8 52 11 61 3 9 7 27 9 39 3 13 15 57 27 98 l22 75 33 -70 c18 -38
31 -75 28 -82z m3652 46 c-3 -8 -6 -5 -6 6 -1 11 2 17 5 13 3 -3 4 -12 1 -19z"/>
</g>
</svg>
